<?xml version="1.0" encoding="UTF-8"?>
<svg version="1.1" xmlns="http://www.w3.org/2000/svg" width="620" height="597">
<path d="M0 0 C2.07966342 -0.00174898 4.15932596 -0.00525984 6.23898387 -0.01035666 C11.89469955 -0.01921638 17.5501069 -0.00341828 23.20578337 0.01675558 C29.32682428 0.03414737 35.44785 0.02817564 41.56890869 0.02514648 C52.15449903 0.02305649 62.73998017 0.03538767 73.32553864 0.05809784 C84.41753868 0.08183309 95.50949909 0.09717511 106.60152435 0.10150909 C107.29332295 0.10178405 107.98512155 0.10205901 108.69788374 0.1023423 C112.21172699 0.10369579 115.72557027 0.10490127 119.23941359 0.10604981 C144.07457325 0.11443302 168.90968136 0.14133077 193.74481201 0.17926025 C217.85939257 0.21604655 241.97395898 0.24435715 266.08856201 0.2612915 C267.20515816 0.26208066 267.20515816 0.26208066 268.34431181 0.26288576 C275.82041927 0.26816021 283.29652684 0.27326342 290.77263451 0.2782412 C305.99991301 0.2883838 321.2271906 0.29966881 336.45446777 0.31164551 C337.15446644 0.31219467 337.8544651 0.31274383 338.57567584 0.31330963 C385.25480232 0.35006099 431.93387844 0.41601236 478.61297607 0.48101807 C478.61297607 45.03101807 478.61297607 89.58101807 478.61297607 135.48101807 C456.17297607 135.48101807 433.73297607 135.48101807 410.61297607 135.48101807 C410.61297607 113.37101807 410.61297607 91.26101807 410.61297607 68.48101807 C356.61539877 68.49553255 302.6179045 68.53346994 248.6203742 68.60787369 C242.24193185 68.61664018 235.86348922 68.62519004 229.48504639 68.63360596 C228.21524146 68.63528502 226.94543653 68.63696408 225.63715267 68.63869403 C205.09086999 68.66534604 184.5446152 68.67445782 163.998317 68.67705949 C142.90764934 68.68012158 121.81706219 68.70209792 100.72643089 68.74154264 C87.71790044 68.76527839 74.70953084 68.77435392 61.70098174 68.76453117 C52.77414859 68.75920543 43.84745926 68.77229249 34.92066705 68.79968097 C29.77440349 68.81493213 24.62846191 68.82223539 19.48218918 68.80761528 C14.76130952 68.79438376 10.04105141 68.80451457 5.32024121 68.83245579 C3.62145712 68.83852438 1.92261698 68.83635665 0.22386241 68.82464733 C-19.0810349 68.70209872 -34.81996909 73.75906501 -49.13702393 87.20367432 C-62.59542336 100.82563069 -67.52161143 118.50542604 -67.54524231 137.22564697 C-67.55017197 138.06759109 -67.55510162 138.90953522 -67.56018066 139.7769928 C-67.5754706 142.58718677 -67.58389417 145.39735833 -67.59234619 148.20758057 C-67.60206869 150.26107987 -67.61221455 152.31457721 -67.62274837 154.36807251 C-67.6497351 159.85596495 -67.67094476 165.34386534 -67.69094086 170.83178711 C-67.71060014 175.98571437 -67.73549201 181.13961124 -67.75994873 186.29351807 C-67.8283862 201.35599515 -67.88844551 216.41850935 -67.94952393 231.48101807 C-68.09389893 265.14101807 -68.23827393 298.80101807 -68.38702393 333.48101807 C66.25297607 333.48101807 200.89297607 333.48101807 339.61297607 333.48101807 C339.61297607 378.03101807 339.61297607 422.58101807 339.61297607 468.48101807 C317.17297607 468.48101807 294.73297607 468.48101807 271.61297607 468.48101807 C271.61297607 446.37101807 271.61297607 424.26101807 271.61297607 401.48101807 C136.97297607 401.48101807 2.33297607 401.48101807 -136.38702393 401.48101807 C-136.42827393 356.31226807 -136.46952393 311.14351807 -136.51202393 264.60601807 C-136.53023193 250.36074951 -136.54843994 236.11548096 -136.56719971 221.4385376 C-136.57623291 204.00030518 -136.57623291 204.00030518 -136.57791138 195.82839966 C-136.57976945 190.1391737 -136.587076 184.44998744 -136.59817505 178.76077271 C-136.61098218 172.18619629 -136.6166781 165.61165768 -136.61391383 159.03706872 C-136.6127184 155.67996771 -136.61564494 152.32301807 -136.62545419 148.96592164 C-136.72306631 113.9116704 -136.72306631 113.9116704 -132.19952393 97.91851807 C-131.87806396 96.75111084 -131.87806396 96.75111084 -131.55010986 95.56011963 C-121.73394008 61.27988881 -99.43473413 33.55683541 -68.63702393 15.73101807 C-62.98162323 12.59512432 -57.17421828 9.98004509 -51.13702393 7.66851807 C-50.46058838 7.40264893 -49.78415283 7.13677979 -49.08721924 6.862854 C-33.14574704 1.11524838 -16.78487122 -0.10672109 0 0 Z " fill="#157CC0" transform="translate(138.38702392578125,0.51898193359375)"/>
<path d="M0 0 C22.44 0 44.88 0 68 0 C68 22.11 68 44.22 68 67 C202.31 67 336.62 67 475 67 C475.12375 137.4446875 475.12375 137.4446875 475.25 209.3125 C475.28641602 224.12294189 475.32283203 238.93338379 475.36035156 254.19262695 C475.37841797 272.32458496 475.37841797 272.32458496 475.3817749 280.82194519 C475.38549064 286.73700889 475.40010179 292.65191982 475.42230225 298.56694031 C475.44792061 305.40282927 475.45930747 312.23857277 475.4537798 319.07450999 C475.45138938 322.56493923 475.4549455 326.05504419 475.47686052 329.54541266 C475.5571536 344.53168076 475.02887308 358.51116018 471 373 C470.81964596 373.66531349 470.63929193 374.33062698 470.45347261 375.01610148 C465.72337008 392.27317802 456.67155408 408.49796927 445 422 C444.57783203 422.50289551 444.15566406 423.00579102 443.72070312 423.52392578 C427.5741911 442.69942634 405.74226982 456.00937287 381.875 463.3125 C381.08859131 463.55500488 380.30218262 463.79750977 379.49194336 464.04736328 C365.89203424 468.00415806 352.52790035 468.28472731 338.49272156 468.24050903 C336.42322592 468.24138227 334.3537305 468.24313542 332.28423625 468.24568737 C326.62419387 468.25014166 320.96422773 468.24218365 315.30419505 468.23213124 C309.19052874 468.22347132 303.07686652 468.2264187 296.9631958 468.22793579 C286.37970007 468.22898303 275.79623155 468.22279334 265.21274376 468.21146011 C254.11775279 468.19960971 243.02277168 468.19192492 231.92777443 468.18975449 C231.236881 468.18961701 230.54598757 468.18947953 229.83415798 468.18933788 C226.32519204 468.18866118 222.81622609 468.18805842 219.30726013 468.18748413 C194.47932883 468.18328781 169.65141039 468.16982569 144.82348633 468.15087891 C120.70955473 468.13249828 96.59562666 468.11833682 72.48168945 468.10986328 C71.73786539 468.10960023 70.99404133 468.10933718 70.22767715 468.10906615 C62.75761567 468.10642902 55.28755417 468.10387741 47.81749264 468.10138843 C32.60129475 468.09631656 17.38509709 468.09067405 2.16889954 468.08468628 C1.11956823 468.08427441 1.11956823 468.08427441 0.04903831 468.08385422 C-46.63398104 468.06546542 -93.31698785 468.03249183 -140 468 C-140 423.45 -140 378.9 -140 333 C-117.56 333 -95.12 333 -72 333 C-72 355.11 -72 377.22 -72 400 C-17.96838436 399.96287523 36.06316949 399.90705258 90.09473253 399.82207905 C96.47575245 399.81206176 102.85677262 399.80221761 109.23779297 399.79248047 C110.50812252 399.7905391 111.77845206 399.78859772 113.08727644 399.78659752 C133.64783658 399.75558869 154.20838555 399.73859998 174.76896466 399.72680578 C195.87091564 399.71438845 216.97280812 399.68687385 238.07472217 399.64538693 C251.09244802 399.62026829 264.11007684 399.60688154 277.12782727 399.60857043 C286.05836785 399.60860022 294.98880969 399.59394617 303.91931178 399.56783572 C309.06933556 399.5532092 314.21915687 399.54497026 319.36919785 399.55419731 C324.09113145 399.56251394 328.81265909 399.55224809 333.53453265 399.52766338 C335.23597284 399.52200248 336.9374518 399.52295971 338.63888003 399.53148755 C357.7631189 399.6190718 374.61501068 394.9717616 388.7890625 381.37109375 C399.69560268 369.67450384 406.31695833 354.96310048 406.2784729 338.95166016 C406.28715141 337.63986031 406.28715141 337.63986031 406.29600525 336.30155945 C406.31294993 333.38068949 406.31586618 330.45997762 406.31884766 327.5390625 C406.32826304 325.40546284 406.33854284 323.27186685 406.3496151 321.13827515 C406.37683375 315.43490323 406.39225235 309.73155703 406.40519714 304.02813721 C406.41914921 298.67236938 406.44378255 293.31667124 406.4675293 287.9609375 C406.53073096 272.30733125 406.57682436 256.65365971 406.625 241 C406.74875 206.02 406.8725 171.04 407 135 C272.69 135 138.38 135 0 135 C0 90.45 0 45.9 0 0 Z " fill="#157CC0" transform="translate(142,128)"/>
</svg>
